<?xml version="1.0" encoding="utf-8" ?>
<svg baseProfile="full" height="1024" version="1.1" width="1024" xmlns="http://www.w3.org/2000/svg" xmlns:ev="http://www.w3.org/2001/xml-events" xmlns:xlink="http://www.w3.org/1999/xlink"><defs><linearGradient id="grad" x1="0%" x2="100%" y1="0%" y2="0%"><stop offset="0" stop-color="purple" /><stop offset="1" stop-color="blue" /></linearGradient></defs><polygon fill="url(#grad)" points="714,737" /><polygon fill="url(#grad)" points="712,737" /><polygon fill="url(#grad)" points="710,737" /><polygon fill="url(#grad)" points="704,737 707,737" /><polygon fill="url(#grad)" points="699,737" /><polygon fill="url(#grad)" points="690,737" /><polygon fill="url(#grad)" points="660,737" /><polygon fill="url(#grad)" points="653,737 654,737" /><polygon fill="url(#grad)" points="650,737" /><polygon fill="url(#grad)" points="561,737 562,737" /><polygon fill="url(#grad)" points="557,737" /><polygon fill="url(#grad)" points="555,737" /><polygon fill="url(#grad)" points="544,737" /><polygon fill="url(#grad)" points="541,737" /><polygon fill="url(#grad)" points="372,737" /><polygon fill="url(#grad)" points="370,737" /><polygon fill="url(#grad)" points="365,737" /><polygon fill="url(#grad)" points="363,737" /><polygon fill="url(#grad)" points="355,737" /><polygon fill="url(#grad)" points="343,737 344,737" /><polygon fill="url(#grad)" points="327,734" /><polygon fill="url(#grad)" points="468,714" /><polygon fill="url(#grad)" points="468,709" /><polygon fill="url(#grad)" points="468,705" /><polygon fill="url(#grad)" points="468,696" /><polygon fill="url(#grad)" points="468,689 468,690" /><polygon fill="url(#grad)" points="468,687" /><polygon fill="url(#grad)" points="468,676" /><polygon fill="url(#grad)" points="468,673" /><polygon fill="url(#grad)" points="468,670" /><polygon fill="url(#grad)" points="468,661 468,662" /><polygon fill="url(#grad)" points="468,657" /><polygon fill="url(#grad)" points="591,652" /><polygon fill="url(#grad)" points="468,649" /><polygon fill="url(#grad)" points="591,646 591,649" /><polygon fill="url(#grad)" points="591,642" /><polygon fill="url(#grad)" points="591,636" /><polygon fill="url(#grad)" points="468,636" /><polygon fill="url(#grad)" points="591,627 591,631" /><polygon fill="url(#grad)" points="468,627" /><polygon fill="url(#grad)" points="468,624" /><polygon fill="url(#grad)" points="468,617" /><polygon fill="url(#grad)" points="332,615 331,616 330,616 329,617 328,617 327,618 326,618 319,625 319,626 318,627 318,628 317,629 317,631 316,632 316,650 315,651 316,652 316,684 315,685 316,686 316,696 315,697 316,698 315,699 316,700 315,701 316,702 316,707 315,708 316,709 316,711 315,712 315,713 316,714 316,718 317,719 317,721 318,722 318,723 319,724 319,725 325,731 326,731 327,732 328,732 329,733 330,733 331,734 330,735 331,734 333,734 334,735 415,735 416,734 419,734 420,733 421,733 422,732 423,732 425,730 426,730 429,727 429,726 432,723 432,721 433,720 433,719 434,718 435,719 434,718 434,640 435,639 435,637 434,636 434,632 433,631 433,629 432,628 432,627 431,626 431,625 424,618 423,618 422,617 421,617 420,616 418,616 417,615" /><polygon fill="url(#grad)" points="468,612" /><polygon fill="url(#grad)" points="591,599" /><polygon fill="url(#grad)" points="468,599 468,600" /><polygon fill="url(#grad)" points="591,596" /><polygon fill="url(#grad)" points="468,596" /><polygon fill="url(#grad)" points="591,594" /><polygon fill="url(#grad)" points="468,590" /><polygon fill="url(#grad)" points="591,588" /><polygon fill="url(#grad)" points="591,585 591,586" /><polygon fill="url(#grad)" points="315,583" /><polygon fill="url(#grad)" points="256,583" /><polygon fill="url(#grad)" points="321,582" /><polygon fill="url(#grad)" points="468,581" /><polygon fill="url(#grad)" points="343,578" /><polygon fill="url(#grad)" points="371,571" /><polygon fill="url(#grad)" points="375,570" /><polygon fill="url(#grad)" points="468,568 468,569" /><polygon fill="url(#grad)" points="385,567" /><polygon fill="url(#grad)" points="272,566" /><polygon fill="url(#grad)" points="288,563" /><polygon fill="url(#grad)" points="317,555" /><polygon fill="url(#grad)" points="436,548" /><polygon fill="url(#grad)" points="564,546 563,547 487,547 486,548 484,548 482,550 481,550 479,552 478,552 476,554 476,555 473,558 473,559 472,560 472,561 471,562 471,565 470,566 470,716 471,717 471,719 472,720 472,721 473,722 473,723 474,724 474,725 480,731 481,731 482,732 483,732 484,733 485,733 486,734 488,734 489,735 569,735 570,734 573,734 574,733 575,733 576,732 577,732 579,730 580,730 584,726 584,725 585,724 585,723 587,721 587,719 588,718 588,715 589,714 589,566 588,565 588,563 587,562 587,561 586,560 586,559 585,558 585,557 578,550 577,550 576,549 575,549 574,548 572,548 571,547 565,547" /><polygon fill="url(#grad)" points="489,545" /><polygon fill="url(#grad)" points="347,544" /><polygon fill="url(#grad)" points="356,540" /><polygon fill="url(#grad)" points="373,532" /><polygon fill="url(#grad)" points="534,497" /><polygon fill="url(#grad)" points="646,447 645,448 642,448 641,449 639,449 638,450 637,450 635,452 634,452 633,453 632,452 633,453 629,457 629,458 627,460 627,461 626,462 626,464 625,465 625,538 624,539 625,540 625,717 626,718 626,720 627,721 627,722 628,723 628,724 630,726 630,727 631,727 635,731 636,731 638,733 640,733 641,734 643,734 644,735 727,735 728,734 730,734 731,733 732,733 733,732 734,732 736,730 737,730 740,727 740,726 742,724 742,723 743,722 743,721 744,720 744,719 745,718 745,465 744,464 744,462 743,461 743,460 741,458 741,457 736,452 735,452 733,450 732,450 731,449 729,449 728,448 724,448 723,447" /><polygon fill="url(#grad)" points="648,445" /><polygon fill="url(#grad)" points="556,388" /><polygon fill="url(#grad)" points="749,384" /><polygon fill="url(#grad)" points="685,374" /><polygon fill="url(#grad)" points="613,322" /><polygon fill="url(#grad)" points="759,310" /><polygon fill="url(#grad)" points="704,242" /><polygon fill="url(#grad)" points="743,233" /><polygon fill="url(#grad)" points="759,231 758,232 755,232 754,233 750,233 749,234 746,234 745,235 742,235 741,236 737,236 736,237 733,237 732,238 729,238 728,239 725,239 724,240 721,240 720,241 716,241 715,242 712,242 711,243 707,243 706,244 702,244 701,245 698,245 697,246 693,246 692,247 689,247 688,248 684,248 683,249 680,249 679,250 676,250 675,251 671,251 670,252 667,252 666,253 662,253 661,252 662,253 661,254 658,254 657,255 653,255 652,256 649,256 648,257 645,257 644,258 641,258 640,259 636,259 635,260 632,260 631,261 628,261 627,262 624,262 623,263 620,263 619,264 615,264 614,265 612,265 611,266 607,266 606,267 603,267 602,268 599,268 598,269 595,269 594,270 591,270 590,271 587,271 586,272 583,272 582,273 581,273 578,276 593,291 594,291 618,315 619,315 620,316 619,317 619,318 615,322 615,323 611,327 611,328 607,332 607,333 602,338 602,339 596,345 596,346 591,351 591,352 584,359 584,360 577,367 577,368 569,376 569,377 558,388 558,389 537,410 536,409 537,410 522,425 521,424 522,425 518,429 517,428 518,429 510,437 509,437 500,446 499,446 491,454 490,454 484,460 483,460 482,459 483,460 478,465 477,465 472,470 471,470 467,474 466,474 462,478 461,478 458,481 457,481 454,484 453,484 450,487 449,487 447,489 446,489 443,492 442,492 440,494 439,494 436,497 435,497 433,499 432,499 430,501 429,501 428,500 427,501 428,502 427,503 426,503 424,505 423,505 421,507 420,507 418,509 417,509 416,510 415,510 413,512 412,512 410,514 409,514 408,515 407,515 405,517 404,517 403,516 404,517 403,518 402,518 400,520 399,520 398,521 397,521 396,522 395,522 393,524 392,524 391,525 390,525 389,526 388,526 387,527 386,527 385,528 384,528 383,529 382,529 381,530 380,530 379,531 378,531 377,532 376,532 374,534 373,534 372,535 370,535 369,536 368,536 367,537 366,537 365,538 364,538 363,539 362,539 361,540 360,540 359,541 358,541 357,542 356,542 355,543 353,543 352,544 351,544 350,545 349,545 348,546 346,546 345,547 344,547 343,548 342,548 341,549 339,549 338,550 336,550 335,551 334,551 333,552 332,552 331,553 329,553 328,554 325,554 324,555 323,555 322,556 320,556 319,557 317,557 316,558 314,558 313,559 310,559 309,560 307,560 306,561 303,561 302,562 299,562 298,563 295,563 294,564 291,564 290,565 286,565 285,566 281,566 280,567 275,567 274,568 268,568 267,569 260,569 259,570 246,570 245,571 236,571 235,572 235,574 237,576 239,576 240,577 242,577 243,578 245,578 246,579 249,579 250,580 254,580 255,581 260,581 261,582 272,582 273,583 294,583 295,582 307,582 308,581 316,581 317,582 316,581 317,580 323,580 324,579 329,579 330,578 334,578 335,577 340,577 341,576 344,576 345,575 349,575 350,574 353,574 354,573 357,573 358,572 361,572 362,571 365,571 366,570 369,570 370,569 372,569 373,568 376,568 377,567 379,567 380,566 382,566 383,565 386,565 387,564 389,564 390,563 392,563 393,562 395,562 396,561 398,561 399,560 401,560 402,559 403,559 404,558 406,558 407,557 409,557 410,556 412,556 413,555 414,555 415,554 417,554 418,553 420,553 421,552 422,552 423,551 425,551 426,550 427,550 428,549 430,549 431,548 432,548 433,547 434,547 435,546 437,546 438,545 439,545 440,544 441,544 442,543 443,543 444,542 446,542 447,541 448,541 449,540 450,540 451,539 452,539 453,538 455,538 456,537 457,537 458,536 459,536 460,535 461,535 462,534 463,534 464,533 465,533 466,532 467,532 468,531 469,531 470,530 471,530 472,529 473,529 474,528 475,528 476,527 477,527 478,526 479,526 480,525 481,525 482,524 483,524 484,523 485,523 486,522 487,522 488,521 489,521 490,520 491,520 492,519 493,519 495,517 496,517 497,516 498,516 499,515 500,515 501,514 502,514 504,512 505,512 506,511 507,511 508,510 509,510 511,508 512,508 513,507 514,507 515,506 516,506 518,504 519,504 520,503 521,503 523,501 524,501 525,500 526,500 528,498 529,498 531,496 532,496 534,494 535,494 536,493 537,493 539,491 540,491 541,490 542,490 545,487 546,487 548,485 549,485 551,483 552,483 554,481 555,481 556,480 557,480 559,478 560,478 563,475 564,475 566,473 567,473 570,470 571,470 573,468 574,468 577,465 578,465 581,462 582,462 585,459 586,459 589,456 590,456 593,453 594,453 598,449 599,449 603,445 604,445 608,441 609,441 613,437 614,437 619,432 620,432 626,426 627,426 633,420 634,420 641,413 642,413 652,403 653,403 668,388 669,388 669,387 670,386 671,386 672,385 672,384 673,383 674,383 676,381 676,380 685,371 686,371 687,372 688,372 690,374 689,375 690,374 694,378 695,378 700,383 701,383 706,388 707,388 712,393 713,393 717,397 718,397 723,402 724,402 729,407 730,407 736,413 737,413 738,414 740,414 741,413 742,413 742,412 743,411 743,409 744,408 744,402 745,401 745,394 746,393 746,387 747,386 747,380 748,379 748,373 749,372 749,366 750,365 750,357 751,356 751,351 752,350 752,344 753,343 753,336 754,335 754,328 755,327 755,321 756,320 756,313 757,312 757,305 758,304 758,297 759,296 759,289 760,288 760,282 761,281 761,272 762,271 762,264 763,263 763,256 764,255 764,246 765,245 765,233 764,232 763,232 762,231 761,231 760,232" /></svg>