<?xml version="1.0" encoding="UTF-8"?>
<svg id="Layer_1" data-name="Layer 1" xmlns="http://www.w3.org/2000/svg" xmlns:xlink="http://www.w3.org/1999/xlink" viewBox="0 0 530 504">
  <defs>
    <style>
      .cls-1 {
        fill: url(#linear-gradient-2);
      }

      .cls-2 {
        fill: url(#linear-gradient-4);
      }

      .cls-3 {
        fill: url(#linear-gradient-3);
      }

      .cls-4 {
        fill: url(#linear-gradient);
      }
    </style>
    <linearGradient id="linear-gradient" x1="-676.29" y1="679.42" x2="-675.29" y2="679.42" gradientTransform="translate(81235 81974) scale(120 -120)" gradientUnits="userSpaceOnUse">
      <stop offset="0" stop-color="purple"/>
      <stop offset="1" stop-color="blue"/>
    </linearGradient>
    <linearGradient id="linear-gradient-2" x1="-676.26" y1="679.08" x2="-675.26" y2="679.08" gradientTransform="translate(80710 128756) scale(119 -189)" gradientUnits="userSpaceOnUse">
      <stop offset="0" stop-color="purple"/>
      <stop offset="1" stop-color="blue"/>
    </linearGradient>
    <linearGradient id="linear-gradient-3" x1="-676.31" y1="678.88" x2="-675.32" y2="678.88" gradientTransform="translate(82224 195878) scale(121 -288)" gradientUnits="userSpaceOnUse">
      <stop offset="0" stop-color="purple"/>
      <stop offset="1" stop-color="blue"/>
    </linearGradient>
    <linearGradient id="linear-gradient-4" x1="-679.16" y1="678.81" x2="-678.16" y2="678.81" gradientTransform="translate(359955 239118) scale(530 -352)" gradientUnits="userSpaceOnUse">
      <stop offset="0" stop-color="purple"/>
      <stop offset="1" stop-color="blue"/>
    </linearGradient>
  </defs>
  <polyline class="cls-4" points="199 487 199 409 200 408 200 406 199 405 199 401 198 400 198 398 197 397 197 396 196 395 196 394 189 387 188 387 187 386 186 386 185 385 183 385 182 384 97 384 96 385 95 385 94 386 93 386 92 387 91 387 84 394 84 395 83 396 83 397 82 398 82 400 81 401 81 419 80 420 81 421 81 453 80 454 81 455 81 465 80 466 81 467 80 468 81 469 80 470 81 471 81 476 80 477 81 478 81 480 80 481 80 482 81 483 81 487 82 488 82 490 83 491 83 492 84 493 84 494 90 500 91 500 92 501 93 501 94 502 95 502 96 503 96 503 98 503 99 504 180 504 181 503 184 503 185 502 186 502 187 501 188 501 190 499 191 499 194 496 194 495 197 492 197 490 198 489 198 488 199 487"/>
  <polygon class="cls-1" points="329 315 328 316 252 316 251 317 249 317 247 319 246 319 244 321 243 321 241 323 241 324 238 327 238 328 237 329 237 330 236 331 236 334 235 335 235 485 236 486 236 488 237 489 237 490 238 491 238 492 239 493 239 494 245 500 246 500 247 501 248 501 249 502 250 502 251 503 253 503 254 504 334 504 335 503 338 503 339 502 340 502 341 501 342 501 344 499 345 499 349 495 349 494 350 493 350 492 352 490 352 488 353 487 353 484 354 483 354 335 353 334 353 332 352 331 352 330 351 329 351 328 350 327 350 326 343 319 342 319 341 318 340 318 339 317 337 317 336 316 330 316 329 315"/>
  <polygon class="cls-3" points="404 218 403 219 402 219 400 221 399 221 398 222 398 222 394 226 394 227 392 229 392 230 391 231 391 233 390 234 390 307 390 309 390 486 391 487 391 489 392 490 392 491 393 492 393 493 395 495 395 496 396 496 400 500 401 500 403 502 405 502 406 503 408 503 409 504 492 504 493 503 495 503 496 502 497 502 498 501 499 501 501 499 502 499 505 496 505 495 507 493 507 492 508 491 508 490 509 489 509 488 510 487 510 234 509 233 509 231 508 230 508 229 506 227 506 226 501 221 500 221 498 219 497 219 496 218 494 218 493 217 489 217 488 216 404 218"/>
  <polygon class="cls-2" points="524 0 523 1 520 1 519 2 515 2 514 3 511 3 510 4 507 4 506 5 502 5 501 6 498 6 497 7 494 7 493 8 490 8 489 9 486 9 485 10 481 10 480 11 477 11 476 12 472 12 471 13 467 13 466 14 463 14 462 15 458 15 457 16 454 16 453 17 449 17 448 18 445 18 444 19 441 19 440 20 436 20 435 21 432 21 431 22 427 22 427 22 426 23 423 23 422 24 418 24 417 25 414 25 413 26 410 26 409 27 406 27 405 28 401 28 400 29 397 29 396 30 393 30 392 31 389 31 388 32 385 32 384 33 380 33 379 34 377 34 376 35 372 35 371 36 368 36 367 37 364 37 363 38 360 38 359 39 356 39 355 40 352 40 351 41 348 41 347 42 346 42 343 45 358 60 359 60 383 84 384 84 385 85 384 86 384 87 380 91 380 92 376 96 376 97 372 101 372 102 367 107 367 108 361 114 361 115 356 120 356 121 349 128 349 129 342 136 342 137 334 145 334 146 323 157 323 158 302 179 302 179 287 194 287 194 283 198 283 198 275 206 274 206 265 215 264 215 256 223 255 223 249 229 248 229 248 229 243 234 242 234 237 239 236 239 232 243 231 243 227 247 226 247 223 250 222 250 219 253 218 253 215 256 214 256 212 258 211 258 208 261 207 261 205 263 204 263 201 266 200 266 198 268 197 268 195 270 194 270 193 269 192 270 193 271 192 272 191 272 189 274 188 274 186 276 185 276 183 278 182 278 181 279 180 279 178 281 177 281 175 283 174 283 173 284 172 284 170 286 169 286 169 286 168 287 167 287 165 289 164 289 163 290 162 290 161 291 160 291 158 293 157 293 156 294 155 294 154 295 153 295 152 296 151 296 150 297 149 297 148 298 147 298 146 299 145 299 144 300 143 300 142 301 141 301 139 303 138 303 137 304 135 304 134 305 133 305 132 306 131 306 130 307 129 307 128 308 127 308 126 309 125 309 124 310 123 310 122 311 121 311 120 312 118 312 117 313 116 313 115 314 114 314 113 315 111 315 110 316 109 316 108 317 107 317 106 318 104 318 103 319 101 319 100 320 99 320 98 321 97 321 96 322 94 322 93 323 90 323 89 324 88 324 87 325 85 325 84 326 82 326 81 327 79 327 78 328 75 328 74 329 72 329 71 330 68 330 67 331 64 331 63 332 60 332 59 333 56 333 55 334 51 334 50 335 46 335 45 336 40 336 39 337 33 337 32 338 25 338 24 339 11 339 10 340 1 340 0 341 0 343 2 345 4 345 5 346 7 346 8 347 10 347 11 348 14 348 15 349 19 349 20 350 25 350 26 351 37 351 38 352 59 352 60 351 72 351 73 350 81 350 81 350 82 349 88 349 89 348 94 348 95 347 99 347 100 346 105 346 106 345 109 345 110 344 114 344 115 343 118 343 119 342 122 342 123 341 126 341 127 340 130 340 131 339 134 339 135 338 137 338 138 337 141 337 142 336 144 336 145 335 147 335 148 334 151 334 152 333 154 333 155 332 157 332 158 331 160 331 161 330 163 330 164 329 166 329 167 328 168 328 169 327 171 327 172 326 174 326 175 325 177 325 178 324 179 324 180 323 182 323 183 322 185 322 186 321 187 321 188 320 190 320 191 319 192 319 193 318 195 318 196 317 197 317 198 316 199 316 200 315 202 315 203 314 204 314 205 313 206 313 207 312 208 312 209 311 211 311 212 310 213 310 214 309 215 309 216 308 217 308 218 307 220 307 221 306 222 306 223 305 224 305 225 304 226 304 227 303 228 303 229 302 230 302 231 301 232 301 233 300 234 300 235 299 236 299 237 298 238 298 239 297 240 297 241 296 242 296 243 295 244 295 245 294 246 294 247 293 248 293 249 292 250 292 251 291 252 291 253 290 254 290 255 289 256 289 257 288 258 288 260 286 261 286 262 285 263 285 264 284 265 284 266 283 267 283 269 281 270 281 271 280 272 280 273 279 274 279 276 277 277 277 278 276 279 276 280 275 281 275 283 273 284 273 285 272 286 272 288 270 289 270 290 269 291 269 293 267 294 267 296 265 297 265 299 263 300 263 301 262 302 262 304 260 305 260 306 259 307 259 310 256 311 256 313 254 314 254 316 252 317 252 319 250 320 250 321 249 322 249 324 247 325 247 328 244 329 244 331 242 332 242 335 239 336 239 338 237 339 237 342 234 343 234 346 231 347 231 350 228 351 228 354 225 355 225 358 222 359 222 363 218 364 218 368 214 369 214 373 210 374 210 378 206 379 206 384 201 385 201 391 195 392 195 398 189 399 189 406 182 407 182 417 172 418 172 433 157 434 157 434 156 435 155 436 155 437 154 437 153 438 152 439 152 441 150 441 149 450 140 451 140 452 141 453 141 455 143 455 143 459 147 460 147 465 152 466 152 471 157 472 157 477 162 478 162 482 166 483 166 488 171 489 171 494 176 495 176 501 182 502 182 503 183 505 183 506 182 507 182 507 181 508 180 508 178 509 177 509 171 510 170 510 163 511 162 511 156 512 155 512 149 513 148 513 142 514 141 514 135 515 134 515 126 516 125 516 120 517 119 517 113 518 112 518 105 519 104 519 97 520 96 520 90 521 89 521 82 522 81 522 74 523 73 523 66 524 65 524 58 525 57 525 51 526 50 526 41 527 40 527 33 528 32 528 25 529 24 529 15 530 14 530 2 529 1 528 1 527 0 526 0 525 1 524 0"/>
</svg>