<?xml version="1.0" encoding="UTF-8"?>
<svg id="Layer_1" data-name="Layer 1" xmlns="http://www.w3.org/2000/svg" xmlns:xlink="http://www.w3.org/1999/xlink" viewBox="0 0 749.96 811.72">
  <defs>
    <style>
      .cls-1 {
        fill: url(#linear-gradient-2);
      }

      .cls-2 {
        fill: url(#linear-gradient-4);
      }

      .cls-3 {
        fill: url(#linear-gradient-3);
      }

      .cls-4 {
        fill: url(#linear-gradient);
      }
    </style>
    <linearGradient id="linear-gradient" x1="315.2" y1="634.45" x2="315.2" y2="197.87" gradientUnits="userSpaceOnUse">
      <stop offset="0" stop-color="#0049d4"/>
      <stop offset=".99" stop-color="#55c3ff"/>
    </linearGradient>
    <linearGradient id="linear-gradient-2" x1="179.21" y1="634.45" x2="179.21" y2="309.18" gradientUnits="userSpaceOnUse">
      <stop offset="0" stop-color="#009ad0"/>
      <stop offset=".99" stop-color="#00d5e2"/>
    </linearGradient>
    <linearGradient id="linear-gradient-3" x1="43.85" y1="634.45" x2="43.85" y2="405.86" gradientUnits="userSpaceOnUse">
      <stop offset="0" stop-color="#ffa31a"/>
      <stop offset=".99" stop-color="#febd00"/>
    </linearGradient>
    <linearGradient id="linear-gradient-4" x1="436.22" y1="811.72" x2="436.22" y2="0" gradientUnits="userSpaceOnUse">
      <stop offset=".54" stop-color="#5586ff"/>
      <stop offset="1" stop-color="#9d41f8"/>
    </linearGradient>
  </defs>
  <rect class="cls-4" x="269.45" y="197.87" width="91.51" height="436.58" rx="5" ry="5"/>
  <rect class="cls-1" x="134.72" y="309.18" width="88.97" height="325.27" rx="5" ry="5"/>
  <rect class="cls-3" y="405.86" width="87.7" height="228.59" rx="5" ry="5"/>
  <path class="cls-2" d="M746.71,499.64c-4.81-33.2-15.41-56.63-19.06-64.31-1.63-3.43-8.19-16.97-19.7-33.39-8.89-12.69-21.69-28.46-43.85-48.23-31.34-27.96-60.95-45.69-88.97-62.46-22.67-13.57-33.97-21.21-56.56-36.48-10.73-7.25-18.33-12.6-26.69-21.64-8.17-8.84-19.64-21.25-23.51-40.19-4.72-23.07,4.68-41.91,8.26-48.85.96-1.87,16.58-31.03,49.57-42.67,16.32-5.76,34.15-6.26,53.38-6.8,6.57-.19,12.04-.11,15.89,0,2.69,4.78,14,23.59,38.13,31.54,1.9.63,33.95,10.59,61.64-9.28,5.86-4.2,21.23-16.71,25.42-38.34,3.85-19.88-4.09-35.39-7.63-42.05-3.36-6.33-12.06-22.14-31.77-30.92-21.61-9.63-41.57-4.18-47.03-2.47-15.43,4.82-24.75,14.02-27.33,16.7-5.94,6.17-9.43,12.38-11.44,16.7-7.82.61-19.25,1.6-33.05,3.09-22.38,2.43-33.58,3.64-41.94,5.57-27.67,6.36-46.87,19.72-56.56,26.59-9.62,6.82-25.86,18.57-40.04,39.58-5.85,8.67-18.92,28.53-22.24,57.51-2.81,24.52,2.75,43.32,6.35,55.04,7.86,25.58,20.33,42.6,28.23,53.18,15.7,21.03,30.78,33.06,57.56,54.42,18.43,14.7,20.14,14.35,57.83,42.67,22.57,16.96,33.86,25.44,40.67,31.75,18.42,17.04,37.08,34.32,48.93,62.87,14.76,35.55,10,67.03,8.9,73.59-.93,5.55-6.09,34.09-28.6,62.46-17.38,21.91-36.74,33.16-50.2,40.81-16.52,9.39-29.87,13.68-56.56,22.26-10.05,3.23-38.78,12.19-80.71,20.41-20.53,4.02-13.66,1.88-64.18,10.51-37.56,6.42-44.55,8.15-64.18,10.51-21.58,2.6-47.03,4.95-47.03,4.95-5.77.53-10.59.95-13.98,1.24-3.16-5.16-11.43-17.05-27.33-24.74-3.23-1.56-19.76-9.23-41.31-5.57-5.53.94-19.61,3.52-32.41,14.84-13.86,12.26-17.59,27.12-19.06,33.39-1.48,6.29-5.31,23.71,3.81,42.67,10.74,22.3,31.6,30.47,36.22,32.16,0,0,26.51,9.64,53.38-3.09,10.64-5.05,17.69-12.22,18.43-12.99,4.67-4.83,7.67-9.6,9.53-13.09,36.21-.69,65.4-.66,85.16-.52,29.52.22,44.65.75,71.81,0,18.23-.5,36.88-1.02,58.47-3.09,30.17-2.9,68.84-6.61,114.39-23.5,17.6-6.52,45.35-17.03,76.26-39.58,36.25-26.43,56.34-54.45,62.28-63.08,6.21-9.02,14.39-21.04,21.61-38.34,19.59-46.96,13.98-89.41,10.8-111.31ZM639.31,46.06c7.9-6.45,17.74-4.87,19.06-4.64,11.04,1.95,21.01,11.82,20.97,23.98-.05,13.77-12.91,25.06-25.74,24.26-9.7-.6-16.91-7.96-20.02-14.84-4.13-9.13-2.96-21.67,5.72-28.75ZM210.98,760.1c-5.01,9.09-17.36,14.05-28.43,11.03-10.19-2.79-16.56-11.59-17.96-20.22-1.72-10.6,3.73-22.81,14.62-26.96,10.73-4.09,20.77,1.93,21.61,2.45,6.6,4.1,9.07,10.1,10.17,12.87,1.11,2.8,4.8,12.12,0,20.83Z"/>
</svg>