<?xml version="1.0" encoding="UTF-8"?>
<svg xmlns="http://www.w3.org/2000/svg" xmlns:xlink="http://www.w3.org/1999/xlink" viewBox="0 0 920.85 621.41">
  <defs>
    <style>
      .cls-1, .cls-2 {
        fill: #fff;
      }

      .cls-1, .cls-2, .cls-3 {
        stroke-miterlimit: 10;
      }

      .cls-1, .cls-3 {
        stroke: #fff;
      }

      .cls-2 {
        stroke: #f2f2f2;
      }

      .cls-3 {
        fill: url(#linear-gradient);
      }
    </style>
    <linearGradient id="linear-gradient" x1="154.91" y1="599.7" x2="732.88" y2="21.74" gradientUnits="userSpaceOnUse">
      <stop offset="0" stop-color="#a855f7"/>
      <stop offset="1" stop-color="#3b82f6"/>
    </linearGradient>
  </defs>
  <g id="Layer_2" data-name="Layer 2">
    <path class="cls-3" d="M662.06,619.3H225.73c-68.3,0-123.66-55.36-123.66-123.66V125.8c0-9.63,1.1-24.21,6.88-40.77,8.75-25.1,23.36-40.76,29.34-46.67,3.67-3.63,19.6-18.89,45.77-28.34,18.97-6.86,34.88-7.61,41.67-7.88,81.45-3.21,242.67-.75,257.54-.54,42.64.62,63.97.93,76.9.54,22.72-.69,57.35,0,101.89,0,6.76,0,16.8.56,29.59,3.79,32.89,8.3,53.21,27.81,57.85,32.43,7,6.98,22.35,23.95,30.66,50.67,3.61,11.62,5.56,23.97,5.56,36.77v369.84c0,68.3-55.36,123.66-123.66,123.66Z"/>
    <rect class="cls-1" x="437.71" y="340.77" width="87.03" height="170.1" rx="11.71" ry="11.71"/>
    <rect class="cls-1" x="307.46" y="390.11" width="87.03" height="120.76" rx="8.83" ry="8.83"/>
  </g>
  <g id="Layer_3" data-name="Layer 3">
    <path class="cls-2" d="M531.84,135.84l.35,1.4c5.18,4.69,9.33,8.49,12.23,11.17,2.43,2.24,4.49,4.15,7.52,6.83,2.53,2.24,5.04,4.39,7.51,6.47-2.8,3.63-6.83,8.74-11.88,14.68-4.48,5.28-22.31,25.98-58.02,55.92-11.06,9.28-33.17,27.26-63.26,47.53-19.47,13.12-37.43,25.12-63.26,37.87-16.41,8.1-29.08,13.08-46.14,19.8-26.73,10.52-49.58,18.16-66.41,23.42,12.03.31,28.92.14,48.93-2.1,35.74-4,61.32-12.35,88.78-21.32,40.64-13.27,70.43-27.63,84.23-34.6,7.42-3.75,26.13-13.39,49.28-27.96,24.04-15.12,55.15-36.98,88.78-67.46l19.05,18.01c2.05,1.93,4.1,3.87,6.15,5.8,1.33,1.26,3.56,2.05,5.21,1.36,1.7-.71,2.01-2.9,3.15-7.69.54-2.28,1.39-5.65,2.62-9.79,3.76-14.01,6.81-25.59,9-33.98,3.5-13.37,4.6-17.8,5.15-20.02,2.9-11.7,3.95-16.73,6.64-28.14,1.63-6.91,4.04-16.88,7.16-29.06.06-.17.79-2.18-.43-3.89-1.03-1.45-3.02-2.05-4.86-1.43-2.01.39-4.62.93-7.66,1.65-4.32,1.02-6.88,1.78-15.18,4.06-2.56.7-5.13,1.39-7.69,2.1-21.15,5.8-31.73,8.71-41.39,11.33-15.88,4.3-18.95,5.05-29.49,8.03-7.98,2.25-12.59,3.63-16.31,4.7-4.7,1.36-11.38,3.21-19.76,5.3Z"/>
    <rect class="cls-1" x="568.31" y="265.74" width="86.91" height="245.13" rx="11.07" ry="11.07"/>
  </g>
</svg>