<?xml version="1.0" encoding="UTF-8"?>
<svg id="Layer_1" data-name="Layer 1" xmlns="http://www.w3.org/2000/svg" xmlns:xlink="http://www.w3.org/1999/xlink" viewBox="0 0 612.93 549.33">
  <defs>
    <style>
      .cls-1 {
        fill: url(#linear-gradient-15);
      }

      .cls-2 {
        fill: url(#linear-gradient-13);
      }

      .cls-3 {
        fill: url(#linear-gradient-2);
      }

      .cls-4 {
        fill: url(#linear-gradient-10);
      }

      .cls-5 {
        fill: url(#linear-gradient-12);
      }

      .cls-6 {
        fill: url(#linear-gradient-4);
      }

      .cls-7 {
        fill: url(#linear-gradient-3);
      }

      .cls-8 {
        fill: url(#linear-gradient-5);
      }

      .cls-9 {
        fill: url(#linear-gradient-8);
      }

      .cls-10 {
        fill: url(#linear-gradient-14);
      }

      .cls-11 {
        fill: url(#linear-gradient-7);
      }

      .cls-12 {
        fill: url(#linear-gradient-9);
      }

      .cls-13 {
        fill: url(#linear-gradient-11);
      }

      .cls-14 {
        fill: url(#linear-gradient-6);
      }

      .cls-15 {
        fill: url(#linear-gradient-16);
      }

      .cls-16 {
        fill: url(#linear-gradient);
      }
    </style>
    <linearGradient id="linear-gradient" x1="298.32" y1="346.59" x2="298.32" y2="609.36" gradientTransform="translate(0 751.34) scale(1 -1)" gradientUnits="userSpaceOnUse">
      <stop offset="0" stop-color="#6366f1"/>
      <stop offset="1" stop-color="#3b82f6"/>
    </linearGradient>
    <linearGradient id="linear-gradient-2" x1="328.02" y1="351" x2="328.02" y2="602.98" gradientTransform="translate(0 751.34) scale(1 -1)" gradientUnits="userSpaceOnUse">
      <stop offset="0" stop-color="#6366f1"/>
      <stop offset="1" stop-color="#3b82f6"/>
    </linearGradient>
    <linearGradient id="linear-gradient-3" x1="182.33" y1="415.12" x2="182.33" y2="187.2" gradientUnits="userSpaceOnUse">
      <stop offset="0" stop-color="#1fc4b2"/>
      <stop offset="1" stop-color="#087d9d"/>
    </linearGradient>
    <linearGradient id="linear-gradient-4" x1="216.53" y1="347.9" x2="216.53" y2="542.71" gradientTransform="translate(0 751.34) scale(1 -1)" gradientUnits="userSpaceOnUse">
      <stop offset="0" stop-color="#1fc4b2"/>
      <stop offset="1" stop-color="#087d9d"/>
    </linearGradient>
    <linearGradient id="linear-gradient-5" x1="70.38" y1="415.43" x2="70.38" y2="234.02" gradientUnits="userSpaceOnUse">
      <stop offset="0" stop-color="#facc15"/>
      <stop offset="1" stop-color="#f97316"/>
    </linearGradient>
    <linearGradient id="linear-gradient-6" x1="104.05" y1="413.74" x2="104.05" y2="234.97" gradientUnits="userSpaceOnUse">
      <stop offset="0" stop-color="#f97316"/>
      <stop offset="1" stop-color="#c2410c"/>
    </linearGradient>
    <linearGradient id="linear-gradient-7" x1="306.46" y1="549.33" x2="306.46" y2="0" gradientUnits="userSpaceOnUse">
      <stop offset="0" stop-color="#6d28d9"/>
      <stop offset="1" stop-color="#3b82f6"/>
    </linearGradient>
    <linearGradient id="linear-gradient-8" x1="566.74" y1="14.97" x2="566.74" y2="11.25" xlink:href="#linear-gradient-7"/>
    <linearGradient id="linear-gradient-9" x1="574.15" y1="10.31" x2="574.15" y2="10.21" xlink:href="#linear-gradient-7"/>
    <linearGradient id="linear-gradient-10" x1="575.02" y1="10.21" x2="575.02" y2="9.77" xlink:href="#linear-gradient-7"/>
    <linearGradient id="linear-gradient-11" x1="575.02" y1="10.21" x2="575.02" y2="9.77" xlink:href="#linear-gradient-7"/>
    <linearGradient id="linear-gradient-12" x1="593.88" y1="4.63" x2="593.88" y2="1.28" xlink:href="#linear-gradient-7"/>
    <linearGradient id="linear-gradient-13" x1="566.74" y1="14.97" x2="566.74" y2="11.25" xlink:href="#linear-gradient-7"/>
    <linearGradient id="linear-gradient-14" x1="574.15" y1="10.31" x2="574.15" y2="10.21" xlink:href="#linear-gradient-7"/>
    <linearGradient id="linear-gradient-15" x1="575.02" y1="10.21" x2="575.02" y2="9.77" xlink:href="#linear-gradient-7"/>
    <linearGradient id="linear-gradient-16" x1="593.87" y1="4.63" x2="593.87" y2="1.28" xlink:href="#linear-gradient-7"/>
  </defs>
  <path class="cls-16" d="M316.64,129.49v281.48c1.74-.9,4.37-1.1,5.95-1.67-3.02,8.39-47.54,6.48-48.56,3.9V130.04c1.59-4.01,37.18-.71,42.62-.55h-.02Z"/>
  <path class="cls-3" d="M322.58,409.29c-1.59.57-4.21.77-5.95,1.67V129.49c3.11.09,21.31-2.91,22.8-.55v269.78c-.49,1.54-14.55,9.74-16.84,10.6v-.02Z"/>
  <path class="cls-7" d="M203.65,187.45v226.29c-4.86,1.21-41.37,2.6-42.62-.55v-224.07c1.08-2.75,37.35-1.78,42.62-1.67Z"/>
  <path class="cls-6" d="M203.65,413.74v-226.29c3.96.09,24.64-1.21,25.78,1.67v210.69c-8.03,3.24-17.73,11.92-25.78,13.92h0Z"/>
  <path class="cls-8" d="M92.67,235.39l1,178.37c-4.33,1.32-45.23,2.69-46.58.55v-178.37c1.04-3.81,40.51-.82,45.58-.55Z"/>
  <path class="cls-14" d="M93.65,413.74l-1-178.37c3.23.18,21.6-1.32,22.8.55v163.87c-.39,1.34-19.96,13.37-21.8,13.92v.02Z"/>
  <path class="cls-11" d="M612.93,5.18c-7.14-3.7-16.1-3.24-23.75-3.9l9.41,3.35h-.02l-9.4-3.34h0c-33.69-2.87-71.47-1.7-103.55,11.16-103.09,41.33-36.53,145.55-18.34,223.52,34.73,148.78-42.05,187.64-156.08,209.02-101.03,18.94-207.84,17.64-310.2,20.07l-1,2.22c32.65,26.51,67.48,42.28,105.55,55.74.03,0,.05,0,.08-.01,114.14,40.33,307.08,45.5,392.36-65.78h.01c29.27-38.2,39.49-80.21,39.64-130.36l.02-.06c.21-83.09-35.9-179.79,1.98-257.51-.47.13-.93.26-1.38.4.44-.16.89-.31,1.34-.43,15.33-31.46,42.81-54.24,73.33-64.09ZM574.08,10.28c.06-.02.14-.04.23-.07h0c.46-.16.93-.3,1.41-.44-.48.14-.95.29-1.41.44-.1.03-.2.06-.3.1h-.01s.05-.02.08-.03ZM571.26,11.25c-3.05,1.09-6.07,2.33-9.05,3.72,2.98-1.4,6-2.64,9.05-3.72Z"/>
  <path class="cls-9" d="M562.21,14.97c2.98-1.4,6-2.64,9.05-3.72-3.05,1.09-6.07,2.33-9.05,3.72Z"/>
  <path class="cls-12" d="M574.08,10.28c.06-.02.14-.04.23-.07-.1.03-.2.06-.3.1h-.01s.05-.02.08-.03Z"/>
  <path class="cls-4" d="M575.72,9.77c-.48.14-.95.29-1.41.44h0c.46-.16.93-.3,1.41-.44Z"/>
  <path class="cls-13" d="M575.72,9.77c-.48.14-.95.29-1.41.44h0c.46-.16.93-.3,1.41-.44Z"/>
  <path class="cls-5" d="M598.59,4.63h-.02l-9.4-3.34h0s.01-.01.01-.01l9.41,3.35Z"/>
  <path class="cls-2" d="M571.26,11.25c-3.05,1.09-6.07,2.33-9.05,3.72,2.98-1.4,6-2.64,9.05-3.72Z"/>
  <path class="cls-10" d="M574.31,10.21c-.1.03-.2.06-.3.1h-.01s.05-.02.08-.03c.06-.02.14-.04.23-.07Z"/>
  <path class="cls-1" d="M575.72,9.77c-.48.14-.95.29-1.41.44h0c.46-.16.93-.3,1.41-.44Z"/>
  <path class="cls-15" d="M598.59,4.63h-.02l-9.4-3.34h-.02s.01-.01.02-.01h.01l9.41,3.35Z"/>
</svg>